HIERARCHY
ROOT Hips
{
	OFFSET 0.000000 0.000000 0.000000
	CHANNELS 6 Xposition Yposition Zposition Zrotation Yrotation Xrotation 
	JOINT LHipJoint
	{
		OFFSET 0.000000 0.000000 0.000000
		CHANNELS 3 Zrotation Yrotation Xrotation
		JOINT LeftUpLeg
		{
			OFFSET 1.363060 -1.794630 0.839290
			CHANNELS 3 Zrotation Yrotation Xrotation
			JOINT LeftLeg
			{
				OFFSET 2.448110 -6.726130 0.000000
				CHANNELS 3 Zrotation Yrotation Xrotation
				JOINT LeftFoot
				{
					OFFSET 2.562200 -7.039590 0.000000
					CHANNELS 3 Zrotation Yrotation Xrotation
					JOINT LeftToeBase
					{
						OFFSET 0.157640 -0.433110 2.322550
						CHANNELS 3 Zrotation Yrotation Xrotation
						End Site
						{
							OFFSET 0.000000 0.000000 0.000000
						}
					}
				}
			}
		}
	}
	JOINT RHipJoint
	{
		OFFSET 0.000000 0.000000 0.000000
		CHANNELS 3 Zrotation Yrotation Xrotation
		JOINT RightUpLeg
		{
			OFFSET -1.305520 -1.794630 0.839290
			CHANNELS 3 Zrotation Yrotation Xrotation
			JOINT RightLeg
			{
				OFFSET -2.542530 -6.985550 0.000000
				CHANNELS 3 Zrotation Yrotation Xrotation
				JOINT RightFoot
				{
					OFFSET -2.568260 -7.056230 0.000000
					CHANNELS 3 Zrotation Yrotation Xrotation
					JOINT RightToeBase
					{
						OFFSET -0.164730 -0.452590 2.363150
						CHANNELS 3 Zrotation Yrotation Xrotation
						End Site
						{
							OFFSET 0.000000 0.000000 0.000000
						}
					}
				}
			}
		}
	}
}
MOTION
Frames: 28
Frame Time: 0.008333
10.683687 16.604912 1.024764 -174.827306 -84.796285 -172.481218 -11.326228 5.286530 1.240567 -5.507155 4.929944 2.658742 -1.244375 1.672862 26.125798 0.048360 -3.554234 5.312082 -0.648100 0.000000 -84.596600 8.314467 -0.799083 6.048575 7.655696 11.712043 -40.047997 2.428580 -0.416167 13.586292 0.231171 -0.572718 10.754773 -1.054100 0.000001 -67.058900
10.507775 16.630770 0.996393 -168.788816 -84.700993 -178.513560 -11.401604 5.311560 1.142328 -4.630033 5.728559 1.253537 -1.013501 1.846520 28.860887 0.125506 -3.780513 7.279413 -0.864800 -0.000000 -83.431400 8.307977 -0.892638 6.109337 8.339178 12.042619 -39.551180 2.441185 -0.472810 14.087921 0.179106 -0.823912 10.495676 -1.131000 0.000000 -65.795601
10.335672 16.656586 0.966376 -163.780597 -84.637803 176.526039 -11.485091 5.296603 1.058980 -3.868915 6.435414 -0.312165 -0.781885 1.995064 31.733466 0.230898 -3.739240 9.029692 -1.027700 0.000000 -81.102300 8.287320 -0.990591 6.168215 8.971099 12.274231 -39.075517 2.467282 -0.511951 14.513588 0.134386 -1.012637 10.059983 -1.181500 -0.000000 -64.421400
10.167419 16.682223 0.935249 -159.383547 -84.610499 172.223616 -11.565383 5.246053 0.990818 -3.221823 7.038295 -2.029895 -0.556762 2.122760 34.715547 0.358664 -3.361616 10.465788 -1.084700 0.000000 -77.736500 8.261836 -1.086334 6.228318 9.557951 12.423045 -38.628397 2.507467 -0.533510 14.856032 0.098662 -1.135069 9.484000 -1.205200 -0.000000 -62.989601
10.003229 16.707645 0.903448 -155.340436 -84.625705 168.319342 -11.633699 5.162082 0.937264 -2.691717 7.524929 -3.880031 -0.342232 2.233971 37.767979 0.502956 -2.602521 11.515906 -0.995000 -0.000001 -73.541499 8.238332 -1.177355 6.289632 10.100048 12.493552 -38.217559 2.560349 -0.539452 15.116690 0.073268 -1.184811 8.805055 -1.200900 0.000000 -61.560700
9.843058 16.732848 0.871342 -151.440093 -84.687735 164.599062 -11.685585 5.046187 0.896844 -2.275793 7.890466 -5.836461 -0.139610 2.332266 40.843097 0.659542 -1.456055 12.138861 -0.742800 0.000000 -68.784800 8.220379 -1.264203 6.350792 10.598117 12.489379 -37.844792 2.623807 -0.532136 15.296565 0.058220 -1.163396 8.063442 -1.171400 0.000000 -60.198100
9.686988 16.757976 0.839348 -147.524835 -84.797204 160.897243 -11.720443 4.899537 0.867495 -1.967352 8.136161 -7.868148 0.051228 2.420031 43.887128 0.826375 0.043253 12.325266 -0.342800 -0.000000 -63.754299 8.208966 -1.348437 6.409157 11.051891 12.415775 -37.505621 2.694914 -0.513965 15.395701 0.052294 -1.081139 7.301182 -1.122600 0.000000 -58.962300
9.535190 16.783193 0.807578 -143.592857 -84.948289 157.196593 -11.739936 4.725897 0.845747 -1.764418 8.268221 -9.929722 0.229353 2.499593 46.837943 1.002911 1.827868 12.094387 0.164300 -0.000000 -58.714701 8.205011 -1.429242 6.456085 11.457860 12.270538 -37.184422 2.769791 -0.487768 15.422626 0.055016 -0.944087 6.551402 -1.058700 0.000001 -57.904900
9.387315 16.808657 0.776363 -139.490527 -85.135534 153.341534 -11.748393 4.526342 0.831396 -1.647575 8.297879 -12.000792 0.394909 2.570162 49.647789 1.187609 3.794197 11.481140 0.716799 0.000000 -53.862100 8.204782 -1.510338 6.494677 11.817093 12.076129 -36.874458 2.845198 -0.454298 15.367910 0.061581 -0.786912 5.852830 -0.992500 0.000000 -57.051900
9.243440 16.834586 0.745660 -135.333208 -85.347174 149.431745 -11.749179 4.307381 0.821198 -1.612366 8.239430 -14.038641 0.544807 2.633348 52.261201 1.377675 5.831567 10.537077 1.249700 0.000000 -49.322900 8.207895 -1.589135 6.517277 12.124610 11.837249 -36.553636 2.917042 -0.415152 15.239370 0.070438 -0.622651 5.224504 -0.928200 -0.000001 -56.418800
9.103433 16.861149 0.715393 -131.244390 -85.571487 145.580689 -11.744769 4.076385 0.812801 -1.648925 8.111005 -16.012320 0.675648 2.690600 54.634617 1.567515 7.823295 9.320217 1.702500 -0.000001 -45.154100 8.213735 -1.663054 6.520960 12.376997 11.568048 -36.203227 2.981853 -0.370813 15.040210 0.078983 -0.470309 4.678906 -0.871100 -0.000000 -55.991300
8.967059 16.888460 0.685473 -127.405302 -85.796706 141.962890 -11.735417 3.842207 0.804155 -1.747397 7.932123 -17.897178 0.783732 2.743712 56.733147 1.749067 9.660505 7.891891 2.029000 0.000000 -41.368400 8.223140 -1.728374 6.504522 12.571968 11.284342 -35.806086 3.036950 -0.321147 14.773521 0.084953 -0.345467 4.218835 -0.824700 0.000000 -55.734300
8.834057 16.916561 0.655763 -124.040039 -86.012637 138.797010 -11.718908 3.614069 0.793464 -1.898122 7.722407 -19.676216 0.865751 2.794500 58.532449 1.912896 11.251591 6.314754 2.203400 0.000000 -37.957800 8.238503 -1.780636 6.468608 12.708773 11.002647 -35.348990 3.080663 -0.265711 14.442893 0.086819 -0.257692 3.838004 -0.790300 -0.000000 -55.602100
8.703997 16.945407 0.626208 -121.367485 -86.211116 136.302252 -11.691598 3.400189 0.780537 -2.091509 7.497985 -21.343433 0.919350 2.843875 60.018874 2.049642 12.528027 4.650021 2.221700 -0.000000 -34.909000 8.262678 -1.816286 6.416988 12.788779 10.740086 -34.826624 3.112577 -0.203709 14.050468 0.083655 -0.212048 3.524798 -0.768200 -0.000000 -55.543100
8.576653 16.974945 0.596745 -119.695363 -86.382893 134.782377 -11.648103 3.209520 0.763632 -2.320553 7.275306 -22.888473 0.942276 2.893367 61.183327 2.151725 13.450275 2.956110 2.100400 0.000000 -32.214400 8.300613 -1.830246 6.349640 12.816297 10.503920 -34.229045 3.133415 -0.134667 13.601782 0.076839 -0.199276 3.261712 -0.755100 0.000000 -55.507400
8.451153 17.004926 0.567480 -119.164603 -86.522675 134.392752 -11.586507 3.046307 0.747454 -2.577002 7.059808 -24.329749 0.934408 2.941866 62.032561 2.214478 14.005409 1.284991 1.870900 0.000000 -29.869900 8.352389 -1.822865 6.276302 12.796748 10.309655 -33.571205 3.145355 -0.057092 13.095300 0.066918 -0.216433 3.036061 -0.750000 0.000000 -55.458600
8.327185 17.035185 0.538546 -120.021502 -86.620079 135.381049 -11.505943 2.915833 0.733439 -2.854747 6.859397 -25.671602 0.895184 2.990451 62.572058 2.236759 14.207955 -0.318704 1.572400 0.000000 -27.872199 8.418284 -1.791959 6.198227 12.739024 10.157891 -32.855029 3.151483 0.029925 12.534359 0.057229 -0.245185 2.834998 -0.748500 -0.000001 -55.369800
8.204052 17.065423 0.510108 -122.388332 -86.667926 137.883663 -11.410967 2.820310 0.728775 -3.151446 6.670980 -26.938129 0.825403 3.039232 62.816198 2.221413 14.096400 -1.820385 1.244900 -0.000000 -26.210100 8.492932 -1.739080 6.121738 12.649217 10.049655 -32.101833 3.155614 0.128076 11.919979 0.050906 -0.270400 2.652426 -0.747600 0.000000 -55.236200
8.081253 17.095383 0.482502 -126.314198 -86.656170 141.957000 -11.312376 2.759398 0.738293 -3.462741 6.494360 -28.143025 0.726195 3.089221 62.778516 2.174045 13.724234 -3.197630 0.921500 -0.000000 -24.858600 8.564973 -1.667441 6.047894 12.536742 9.978639 -31.322188 3.162388 0.238920 11.252137 0.051783 -0.274153 2.487753 -0.744100 -0.000000 -55.060400
7.958327 17.124765 0.455929 -131.726332 -86.583279 147.538810 -11.226604 2.728648 0.770439 -3.793454 6.317479 -29.306956 0.599900 3.139948 62.474757 2.103025 13.158638 -4.438503 0.626500 -0.000000 -23.777900 8.617725 -1.583707 5.978112 12.402380 9.930325 -30.539513 3.176008 0.363498 10.534609 0.063669 -0.237979 2.343930 -0.735001 -0.000000 -54.864300
7.834862 17.153337 0.430637 -138.286913 -86.457404 154.297769 -11.174557 2.713838 0.830223 -4.143237 6.127913 -30.438650 0.450980 3.186950 61.920336 2.017118 12.466204 -5.541821 0.373299 0.000000 -22.914900 8.629136 -1.501325 5.911813 12.248141 9.887401 -29.768119 3.200093 0.501279 9.765880 0.088442 -0.151484 2.228767 -0.719000 -0.000000 -54.671100
7.710783 17.180830 0.406810 -145.493012 -86.304260 161.732157 -11.171507 2.692136 0.920669 -4.512167 5.904966 -31.541124 0.286607 3.220083 61.131477 1.924793 11.709270 -6.512663 0.166400 -0.000000 -22.213900 8.582367 -1.437883 5.848705 12.073622 9.826782 -29.025285 3.236135 0.648749 8.945601 0.125956 -0.009835 2.149229 -0.695000 0.000000 -54.509200
7.585869 17.207018 0.384430 -152.882126 -86.161469 169.382746 -11.218712 2.639759 1.042181 -4.897946 5.625160 -32.610898 0.115410 3.225873 60.124175 1.833181 10.939960 -7.358361 0.004400 0.000000 -21.626200 8.475274 -1.409748 5.789604 11.879005 9.723687 -28.329180 3.282777 0.799864 8.077703 0.174460 0.187762 2.109065 -0.661900 -0.000000 -54.405200
7.460231 17.231660 0.363447 -160.092919 -86.065163 176.885685 -11.300364 2.538968 1.191025 -5.289844 5.271790 -33.637789 -0.054128 3.191813 58.913285 1.747115 10.194407 -8.085365 -0.117500 0.000000 -21.118900 8.323658 -1.426111 5.736074 11.671732 9.560222 -27.692446 3.336233 0.947259 7.169829 0.230727 0.435339 2.109388 -0.619200 0.000000 -54.379700
7.334107 17.254554 0.343790 -166.895727 -86.036746 -175.993933 -11.388696 2.385643 1.360307 -5.671912 4.841705 -34.607011 -0.216078 3.111378 57.511576 1.668700 9.490354 -8.697276 -0.205100 0.000000 -20.678400 8.157051 -1.485216 5.688799 11.464672 9.328616 -27.119559 3.391209 1.084007 6.238727 0.291289 0.724029 2.146423 -0.566600 0.000001 -54.434600
7.207873 17.275545 0.325243 -173.325754 -86.078418 -169.227167 -11.458328 2.188921 1.544421 -6.035711 4.338699 -35.505881 -0.367948 2.985752 55.929588 1.598253 8.833960 -9.192745 -0.263400 0.000000 -20.314500 8.004359 -1.577063 5.646655 11.265526 9.027388 -26.616173 3.442320 1.204817 5.316037 0.353871 1.049353 2.207613 -0.503500 0.000000 -54.566700
7.081909 17.294410 0.307628 -179.360539 -86.174558 -162.843042 -11.487468 1.966057 1.736498 -6.372257 3.778396 -36.322708 -0.510010 2.821713 54.179203 1.533798 8.217046 -9.568719 -0.296500 0.000000 -20.052700 7.890925 -1.686935 5.607617 11.082037 8.668251 -26.183259 3.484991 1.305912 4.441582 0.415994 1.403715 2.272360 -0.430200 0.000000 -54.753700
6.956605 17.310986 0.290742 174.924114 -86.300931 -156.771308 -11.464971 1.736872 1.932487 -6.683571 3.173505 -37.050281 -0.644193 2.628881 52.274372 1.472709 7.628570 -9.819835 -0.307500 0.000000 -19.933900 7.831379 -1.800409 5.568531 10.911901 8.264160 -25.829172 3.515984 1.384405 3.666576 0.476228 1.785268 2.310267 -0.346900 0.000000 -54.980000
